<svg width="48" height="48" viewBox="0 0 48 48" fill="none" xmlns="http://www.w3.org/2000/svg">
<rect width="48" height="48" rx="8" fill="#D9385E"/>
<path d="M29.8536 33.5009C29.0736 33.5009 28.5436 33.3009 28.2636 32.9009C27.9836 32.4809 27.8436 31.9609 27.8436 31.3409C27.8436 30.7809 27.9236 30.1509 28.0836 29.4509C28.2636 28.5909 28.5836 27.5709 29.0436 26.3909C29.5236 25.2109 30.0536 23.9809 30.6336 22.7009C31.2336 21.4009 31.8236 20.1609 32.4036 18.9809C33.0036 17.8009 33.5236 16.7909 33.9636 15.9509C33.7036 16.1909 33.4336 16.4409 33.1536 16.7009C32.8936 16.9609 32.6236 17.2509 32.3436 17.5709C31.1836 18.8709 30.1236 20.1109 29.1636 21.2909C28.2236 22.4509 27.3136 23.6009 26.4336 24.7409C25.5736 25.8609 24.6836 27.0109 23.7636 28.1909C23.2636 28.8509 22.8636 29.3509 22.5636 29.6909C22.2836 30.0109 22.0236 30.2309 21.7836 30.3509C21.5636 30.4509 21.2836 30.5009 20.9436 30.5009C20.4436 30.5009 19.8736 30.3509 19.2336 30.0509C19.5136 29.7109 19.7036 28.9809 19.8036 27.8609C19.9236 26.7409 19.9836 25.4609 19.9836 24.0209C19.9836 22.5609 19.9336 21.0509 19.8336 19.4909C19.7336 17.9309 19.5836 16.5509 19.3836 15.3509C19.2636 15.5509 19.0436 15.9909 18.7236 16.6709C18.4236 17.3509 18.0536 18.1909 17.6136 19.1909C17.1936 20.1709 16.7436 21.2409 16.2636 22.4009C15.7836 23.5409 15.3136 24.6909 14.8536 25.8509C14.4136 26.9909 14.0136 28.0709 13.6536 29.0909C13.3136 30.1109 13.0536 30.9909 12.8736 31.7309C12.6936 32.4709 12.6336 32.9809 12.6936 33.2609H9.93363C10.3736 32.1409 10.8736 30.9009 11.4336 29.5409C12.0136 28.1609 12.6136 26.7509 13.2336 25.3109C13.8536 23.8709 14.4636 22.4709 15.0636 21.1109C15.6836 19.7509 16.2436 18.5109 16.7436 17.3909C17.2636 16.2509 17.6936 15.3109 18.0336 14.5709C18.3736 13.8309 18.5936 13.3709 18.6936 13.1909C17.8136 13.1709 16.9136 13.2609 15.9936 13.4609C15.0736 13.6409 14.2136 13.9009 13.4136 14.2409C12.6136 14.5809 11.9336 14.9709 11.3736 15.4109C10.8336 15.8509 10.4836 16.3109 10.3236 16.7909C10.3036 16.8509 10.2636 16.8809 10.2036 16.8809C10.0436 16.8809 9.96363 16.7509 9.96363 16.4909C9.96363 16.4509 9.96363 16.4109 9.96363 16.3709C9.98363 16.3109 10.0036 16.2509 10.0236 16.1909C10.2036 15.6709 10.4236 15.2109 10.6836 14.8109C10.9636 14.4109 11.2336 14.0709 11.4936 13.7909C12.1536 13.1109 12.8936 12.7009 13.7136 12.5609C14.5336 12.4009 15.4036 12.3209 16.3236 12.3209H19.2336C19.6736 12.3209 20.1036 12.3209 20.5236 12.3209C20.9436 12.3209 21.3136 12.4309 21.6336 12.6509C21.9536 12.8509 22.1636 13.2509 22.2636 13.8509C22.3436 14.2709 22.4136 14.9109 22.4736 15.7709C22.5536 16.6109 22.6136 17.5509 22.6536 18.5909C22.7136 19.6309 22.7636 20.6609 22.8036 21.6809C22.8436 22.7009 22.8736 23.5809 22.8936 24.3209C22.8936 24.3609 22.8936 24.4809 22.8936 24.6809C22.9136 24.8609 22.9236 25.0909 22.9236 25.3709C22.9236 25.6309 22.9136 25.9309 22.8936 26.2709C22.8936 26.5909 22.8736 26.9009 22.8336 27.2009C23.2536 26.6809 23.7736 26.0409 24.3936 25.2809C25.0336 24.5009 25.7236 23.6609 26.4636 22.7609C27.2036 21.8409 27.9536 20.9209 28.7136 20.0009C29.4736 19.0809 30.2036 18.2009 30.9036 17.3609C31.6036 16.5209 32.2136 15.7909 32.7336 15.1709C33.2736 14.5309 33.6736 14.0509 33.9336 13.7309C34.3936 13.2109 34.9736 12.8509 35.6736 12.6509C36.3736 12.4309 37.0736 12.3209 37.7736 12.3209H39.6336C39.2136 12.6409 38.7536 13.1809 38.2536 13.9409C37.7536 14.7009 37.2636 15.5209 36.7836 16.4009C36.3236 17.2809 35.9136 18.0809 35.5536 18.8009C35.0336 19.8809 34.5036 21.0509 33.9636 22.3109C33.4236 23.5709 32.9436 24.8209 32.5236 26.0609C32.1036 27.3009 31.7936 28.4509 31.5936 29.5109C31.5336 29.8309 31.5036 30.1709 31.5036 30.5309C31.5036 30.9709 31.5736 31.3609 31.7136 31.7009C31.8736 32.0209 32.1536 32.1809 32.5536 32.1809C32.8736 32.1809 33.2636 32.0509 33.7236 31.7909H33.7536C33.7936 31.7909 33.8236 31.8309 33.8436 31.9109C33.8636 31.9709 33.8536 32.0209 33.8136 32.0609C33.4336 32.4609 32.8536 32.8009 32.0736 33.0809C31.2936 33.3609 30.5536 33.5009 29.8536 33.5009Z" fill="white"/>
</svg>
